<svg width="1501" height="296" viewBox="0 0 1501 296" fill="none" xmlns="http://www.w3.org/2000/svg">
<path fill-rule="evenodd" clip-rule="evenodd" d="M138.243 4.02292C135.768 5.80992 128.182 12.2229 121.383 18.2729C104.627 33.1849 82.3089 53.1169 61.4759 71.7729C51.9569 80.2979 35.3409 95.1479 24.5529 104.773C-0.0931091 126.761 -3.15011 131.95 2.29289 142.563C6.66089 151.08 10.6409 152.773 26.3039 152.773H38.0879L38.7739 172.523C39.1509 183.386 39.4139 212.407 39.3569 237.016C39.2419 287.108 39.1169 286.187 46.7739 291.934L49.8899 294.273L87.4429 294.557L124.996 294.841L129.166 291.82C137.091 286.08 137.39 284.678 137.39 253.313V225.773H149.831C164.963 225.773 163.36 222.353 163.424 254.788C163.485 285.761 163.834 287.391 171.479 292.451L175.529 295.131L210.068 294.922C248.018 294.692 247.115 294.83 253.39 288.303L256.89 284.663L257.39 218.968L257.89 153.273L271.39 152.773C286.731 152.205 288.822 151.386 292.813 144.381C299.999 131.768 297.824 127.889 269.537 102.877C261.075 95.3949 253.16 88.3729 251.946 87.2729C250.732 86.1729 242.383 78.7479 233.392 70.7729C224.402 62.7979 209.794 49.7479 200.932 41.7729C150.561 -3.55408 149.564 -4.15408 138.243 4.02292ZM160.239 37.6499C166.097 43.0819 177.468 53.3199 185.508 60.3999C193.548 67.4799 204.348 77.0649 209.508 81.6989C214.668 86.3329 228.227 98.4819 239.64 108.696C251.053 118.91 260.39 127.539 260.39 127.872C260.39 128.535 246.683 129.757 239.14 129.767L234.39 129.773L234.181 190.523C234.067 223.936 233.954 255.661 233.931 261.023L233.89 270.774L210.311 270.773C188.518 270.773 186.732 270.64 186.739 269.023C186.743 268.061 186.666 255 186.568 240.001L186.39 212.728L182.265 208.253C176.392 201.882 174.427 201.523 147.639 201.925L124.484 202.273L120.321 206.273C113.497 212.829 113.39 213.408 113.39 243.741V270.773H87.8899H62.3899V199.773V128.773H48.8899C32.4249 128.773 32.0179 130.387 53.2149 111.645C76.1529 91.3649 94.2909 75.1819 123.322 49.0939C151.047 24.1799 147.049 25.4189 160.239 37.6499ZM369.74 34.0229C371.284 37.7559 374.541 49.7159 376.889 60.2729C379.964 74.1069 387.166 102.894 394.4 130.273C399.579 149.873 410.992 194.991 420.96 235.273C424.09 247.923 427.031 259.285 427.496 260.523C428.337 262.763 428.442 262.773 450.365 262.773H472.39V260.071C472.39 256.894 474.681 246.967 482.037 218.273C493.47 173.673 527.468 35.2529 527.413 33.5229C527.401 33.1109 518.41 32.7729 507.435 32.7729H487.481L486.73 36.5229C486.318 38.5859 485.923 40.4979 485.854 40.7729C485.278 43.0439 484.204 47.6869 482.384 55.7729C480.346 64.8229 467.407 116.993 460.063 145.773C458.168 153.198 455.397 164.561 453.906 171.025C450.105 187.496 448.949 187.664 445.338 172.273C439.414 147.023 430.301 110.821 422.415 81.2089C417.572 63.0239 412.84 44.6869 411.899 40.4589L410.189 32.7729H389.706C373.711 32.7729 369.337 33.0469 369.74 34.0229ZM582.223 33.7699C582.04 34.3189 582.115 74.0309 582.39 122.02L582.89 209.273L585.629 217.351C597.768 253.151 637.463 270.269 687.605 261.328C706.541 257.951 724.445 244.405 733.266 226.782C740.527 212.274 740.374 214.527 740.646 118.523L740.89 32.7729H720.672H700.455L700.172 117.023L699.89 201.273L697.569 205.622C682.559 233.75 626.566 228.813 623.881 199.125C623.088 190.36 622.412 138.206 622.401 85.0229L622.39 32.7729H602.473C590.123 32.7729 582.43 33.1519 582.223 33.7699ZM796.39 147.773V262.773H875.507H954.623L954.02 260.523C953.689 259.285 953.411 250.464 953.404 240.921L953.39 223.568L896.39 223.921L839.39 224.273V195.523V166.773H896.82H954.251L953.922 160.523C953.741 157.086 953.548 148.535 953.492 141.523L953.39 128.773H896.39H839.39V100.281V71.7889L896.64 71.5309L953.89 71.2729L954.175 54.2729C954.332 44.9229 954.211 36.2609 953.906 35.0229L953.352 32.7729H874.871H796.39V147.773ZM1442.06 33.4399C1441.69 33.8059 1441.39 78.1309 1441.39 131.94V229.773H1386.89H1332.39V208.773V187.773H1315.89H1299.39V225.273V262.773H1387.9H1476.41L1476.38 187.523L1476.34 112.273L1488.36 111.992L1500.39 111.711V94.7419V77.7729H1488.39H1476.39V55.2729V32.7729H1459.56C1450.3 32.7729 1442.42 33.0729 1442.06 33.4399ZM1065.63 74.5179L1065.89 115.273L1101.14 115.536L1136.39 115.799V121.646C1136.39 124.862 1136.12 129.477 1135.79 131.902L1135.18 136.309L1092.54 136.375L1049.89 136.441L1049.61 150.357L1049.34 164.273H1153.11C1212.68 164.273 1257.16 163.893 1257.54 163.382C1258.34 162.275 1258.57 142.243 1257.82 138.607L1257.27 135.94L1213.92 136.107L1170.57 136.273L1170.17 126.773C1169.95 121.548 1169.94 116.935 1170.14 116.523C1170.34 116.111 1186.2 115.773 1205.39 115.773C1224.57 115.773 1240.41 115.435 1240.58 115.023C1240.75 114.61 1240.66 107.748 1240.39 99.7729L1239.89 85.2729H1170.89H1101.89V74.7729V64.2729L1171.39 64.0169L1240.89 63.7599L1240.77 49.0169L1240.64 34.2729L1153.01 34.0179L1065.37 33.7619L1065.63 74.5179ZM1328.63 35.0229C1328.08 35.7109 1322.14 49.9909 1315.42 66.7579C1302.39 99.2939 1296.72 113.037 1287.24 135.179C1280.02 152.015 1278.94 150.838 1301.35 150.52L1318.81 150.273L1327.12 130.773C1331.69 120.048 1338.19 104.748 1341.57 96.7729C1344.95 88.7979 1348.02 81.9169 1348.39 81.4819C1348.77 81.0469 1350.46 84.4219 1352.15 88.9819C1355.43 97.8099 1376.38 147.42 1377.71 149.523C1378.54 150.818 1410.54 151.419 1413.72 150.2C1415.36 149.572 1412.9 143.13 1393.9 98.2729C1388.54 85.6229 1381.5 68.4049 1378.26 60.0099C1375.01 51.6149 1371.26 42.2779 1369.93 39.2599L1367.5 33.7729H1348.57C1334.62 33.7729 1329.37 34.1019 1328.63 35.0229ZM1093.58 180.891C1050.22 188.104 1047.95 249.987 1090.63 261.348C1098.8 263.523 1207.51 263.413 1215.93 261.221C1258.2 250.214 1256.44 189.901 1213.59 180.888C1207.17 179.538 1101.69 179.541 1093.58 180.891ZM1209.41 212.283C1214.48 214.906 1215.92 220.917 1212.88 226.793C1210.28 231.822 1210.87 231.773 1152.63 231.773H1097.74L1095.69 229.523C1090.3 223.61 1090.03 218.934 1094.79 214.173L1098.19 210.773H1152.34C1198.68 210.773 1206.91 210.991 1209.41 212.283Z"/>
</svg>
